<mxfile host="app.diagrams.net" modified="2022-12-30T15:22:11.992Z" agent="5.0 (X11; Linux x86_64) AppleWebKit/537.36 (KHTML, like Gecko) Chrome/109.0.0.0 Safari/537.36" version="20.7.4" etag="QgYCFLWTkzlQVNcgs1Z5" type="github">
  <diagram id="5ZBTqUACRjRanbZbNPAz" name="Page-1">
    <mxGraphModel dx="1647" dy="869" grid="1" gridSize="10" guides="1" tooltips="1" connect="1" arrows="1" fold="1" page="1" pageScale="1" pageWidth="850" pageHeight="1100" math="0" shadow="0">
      <root>
        <mxCell id="0" />
        <mxCell id="1" parent="0" />
        <mxCell id="t3sv0eJoPOoTXeS1tnTe-6" style="edgeStyle=orthogonalEdgeStyle;rounded=0;orthogonalLoop=1;jettySize=auto;html=1;exitX=0.5;exitY=1;exitDx=0;exitDy=0;entryX=0.5;entryY=0;entryDx=0;entryDy=0;" edge="1" parent="1" source="t3sv0eJoPOoTXeS1tnTe-1" target="t3sv0eJoPOoTXeS1tnTe-3">
          <mxGeometry relative="1" as="geometry" />
        </mxCell>
        <mxCell id="t3sv0eJoPOoTXeS1tnTe-1" value="Start" style="ellipse;whiteSpace=wrap;html=1;aspect=fixed;strokeWidth=2;" vertex="1" parent="1">
          <mxGeometry x="430" y="180" width="80" height="80" as="geometry" />
        </mxCell>
        <mxCell id="t3sv0eJoPOoTXeS1tnTe-2" value="End" style="ellipse;whiteSpace=wrap;html=1;aspect=fixed;strokeWidth=2;" vertex="1" parent="1">
          <mxGeometry x="430" y="560" width="80" height="80" as="geometry" />
        </mxCell>
        <mxCell id="t3sv0eJoPOoTXeS1tnTe-7" style="edgeStyle=orthogonalEdgeStyle;rounded=0;orthogonalLoop=1;jettySize=auto;html=1;exitX=0.5;exitY=1;exitDx=0;exitDy=0;entryX=0.5;entryY=0;entryDx=0;entryDy=0;" edge="1" parent="1" source="t3sv0eJoPOoTXeS1tnTe-3" target="t3sv0eJoPOoTXeS1tnTe-4">
          <mxGeometry relative="1" as="geometry" />
        </mxCell>
        <mxCell id="t3sv0eJoPOoTXeS1tnTe-3" value="Administrator Sees List of Users&amp;nbsp;" style="rounded=1;whiteSpace=wrap;html=1;strokeWidth=1;" vertex="1" parent="1">
          <mxGeometry x="410" y="290" width="120" height="60" as="geometry" />
        </mxCell>
        <mxCell id="t3sv0eJoPOoTXeS1tnTe-8" style="edgeStyle=orthogonalEdgeStyle;rounded=0;orthogonalLoop=1;jettySize=auto;html=1;exitX=0.5;exitY=1;exitDx=0;exitDy=0;" edge="1" parent="1" source="t3sv0eJoPOoTXeS1tnTe-4" target="t3sv0eJoPOoTXeS1tnTe-5">
          <mxGeometry relative="1" as="geometry" />
        </mxCell>
        <mxCell id="t3sv0eJoPOoTXeS1tnTe-4" value="Select the Targeted User" style="rounded=1;whiteSpace=wrap;html=1;strokeWidth=1;" vertex="1" parent="1">
          <mxGeometry x="410" y="380" width="120" height="60" as="geometry" />
        </mxCell>
        <mxCell id="t3sv0eJoPOoTXeS1tnTe-9" style="edgeStyle=orthogonalEdgeStyle;rounded=0;orthogonalLoop=1;jettySize=auto;html=1;exitX=0.5;exitY=1;exitDx=0;exitDy=0;entryX=0.5;entryY=0;entryDx=0;entryDy=0;" edge="1" parent="1" source="t3sv0eJoPOoTXeS1tnTe-5" target="t3sv0eJoPOoTXeS1tnTe-2">
          <mxGeometry relative="1" as="geometry" />
        </mxCell>
        <mxCell id="t3sv0eJoPOoTXeS1tnTe-5" value="Ban User to prevent working with software" style="rounded=1;whiteSpace=wrap;html=1;strokeWidth=1;" vertex="1" parent="1">
          <mxGeometry x="410" y="470" width="120" height="60" as="geometry" />
        </mxCell>
      </root>
    </mxGraphModel>
  </diagram>
</mxfile>
